<svg width="770" height="657" fill="none" xmlns="http://www.w3.org/2000/svg"><g clip-path="url(#clip0)"><path d="M161.8 83.5c25.3 1.7 36-15.6 47.8-37.8 32.6-60.8 105.2-55 129.6-17.5 17.2 26.5 54.4 21 84.5 10.7 29.6-10.2 80-20 120.3-7.8 35 10.7 49.5 49.1 81.5 46.8 69.8-5.2 105 63.7 92.3 93.7-8.2 19.6-12.3 41.6-5.6 61.7 7.4 22.3 24.2 39.9 37.9 59 13.6 19 24.6 43 17.8 65.4-5.8 19.2-23 32.4-33.8 49.4-33.4 52.6-.4 133.3-44.8 177.2-31.9 31.4-83.8 24.2-128.3 30.2-37.1 5-72 20.6-109 26.7-75 12.4-150.5-14.9-226.4-15.7-26.8-.2-54 2.7-79.9-3.8-34.6-8.8-64-35.4-76-68.7-16.5-45.9-.8-99-19.5-144C35 372.1-2.2 342.2.2 302.6 1.5 278 18.3 257.4 30 235.5c17.3-32.5-5.6-161.1 131.8-152zm221-59.5c-6.7 0-12.1 4-12.1 9.2 0 5 5.4 8.8 12 9.2 21.7 1.4 21.7-7.3 21.7-12.4 0-8.2-15-6-21.7-6zm219.9 39.3a35.7 35.7 0 0020.7 8c2 .2 4.2 0 5.7-1.2 2-1.6 2.1-4.8.4-6.6-1-1.2-2.6-1.7-4-2.3-2.5-1-5-2.4-6.4-4.7-.4-.6-.7-1.4-1.4-1.8-4.2-2.3-22.7 2.3-15 8.6zm36.9 8.2c1.9.7 4 0 5.9-.6 1.2-.4 2.7-1.3 2.4-2.5-.2-.6-.7-1-1.3-1.3-2.5-1.3-5.8-2.3-8.3-.6-2.6 1.7-.6 4.3 1.3 5zm88 174a17 17 0 003.9 7.6 65 65 0 0011 12.6c1.8 1.5 4 2.9 6.4 3 2.1 0 4.2-1 6-2.2 4.2-3.1 7.1-8 7.7-13.2.8-7.2-2.5-14.1-6.3-20.2a25.2 25.2 0 00-9.2-9.5c-6.7-3.4-11.2-.5-13 5.5-1.8 5.5-7.2 10.2-6.5 16.3zM13.2 411.6c-3.6 3-.4 12.2.7 18.2.3 1.8.7 3.7 1.8 5.1 1.6 2 4.2 2.8 6.6 3.5 4.3 1.3 9.5 2.3 12.8-.7 2.5-2.2 2.8-6 2.8-9.2 0-3-.2-6-.5-9-.1-1.5-.3-3-1.1-4.2a9.3 9.3 0 00-4.5-3.2c-6.1-2.6-15-3.6-18.6-.5zM229.3 640c-2 .4-4.6 1.3-4.9 3.4-.2 1.7 1.2 3.2 2.6 4.2 11.6 8.6 27.1 9.2 41.5 9.4 1.7 0 3.5 0 5-.6 3.1-1.3 4.6-5.4 3.1-8.4a10 10 0 00-2.2-2.9c-11.6-11.3-30.6-8-45-5.1zm288.2-5.9c-13 9.6.2 18 16.6 11.8 8.9-3.4 17.4-6.8 26.5-9 3-.8 20.6-4.6 20.6-8.6 0-10.6-20-8-32.5-6.3a65.4 65.4 0 00-31.2 12.1z" fill="#ECF3FF"/><path d="M272.7 606.6c34.7 0 62.7-2.6 62.7-5.8 0-3.3-28-5.9-62.7-5.9-34.6 0-62.7 2.6-62.7 5.9 0 3.2 28.1 5.8 62.7 5.8zM594.9 606.6c34.6 0 62.7-2.6 62.7-5.8 0-3.3-28.1-5.9-62.7-5.9-34.7 0-62.7 2.6-62.7 5.9 0 3.2 28 5.8 62.7 5.8z" fill="#C8DBFB"/><path d="M727.3 188.5l-.5-3.2" stroke="#C8DBFB" stroke-linecap="round" stroke-linejoin="round"/><path d="M725.2 179c-11.2-38-46.8-34.4-79-34.3l-572 1.2c-54 0-48.7 78-6.5 77.9 24.3 0 33.6 45.6-8.4 45.6-25.2 0-26 32-9.1 38.4" stroke="#C8DBFB" stroke-linecap="round" stroke-linejoin="round" stroke-dasharray="3.99 3.99"/><path d="M53.3 308.7c1 .2 2.1.3 3.3.2" stroke="#C8DBFB" stroke-linecap="round" stroke-linejoin="round"/><path d="M63.2 307.5a7.8 7.8 0 11-15.4 2.6 7.8 7.8 0 0115.4-2.6zM735 192a7.8 7.8 0 11-15.3-2.8A7.8 7.8 0 01735 192zM142.4 250.7c-1.1 6.3-2.8 12.5-4.8 18.6a316 316 0 01-16.2 38.2c-3.1 6.5-15.8 21.6-22.7 24.5.8-17 .9-36.9-1-54-2-16.6 4-29.2-2.5-44.5l-2.6-5.9a82.2 82.2 0 01-7.4-22.5c-1.3-10 1.8-21.3 10.4-26.5a23.2 23.2 0 0121-.6c6.6 3 12 8.3 16 14.3 11.3 16.8 13.3 38.5 9.8 58.4z" fill="#5193F4"/><path d="M112.2 195.6c12.7 18 13.8 38.9 15 60.8a117 117 0 01-15.1 63.3" stroke="#0B43A4" stroke-miterlimit="10" stroke-linecap="round" stroke-linejoin="round"/><path d="M111.7 526.4c-9-7.8-18-15.8-24.5-25.7-5.8-8.6-9.5-18.4-14.5-27.5-3.2-5.8-7-11.5-8.9-17.9-1.8-6.4-1.4-14 3.2-19 4.7-5 13-5.8 19.4-3.2 6.5 2.7 11.4 8.1 15.2 14 5 7.8 8.4 16.6 9.8 25.8 1.2 8.3.9 16.8 2.2 25.1a84 84 0 007 22.3c3 6.4 10.6 17.8 12.5 24.4-5.3 2.7-17.6-15-21.4-18.3z" fill="#00AD9F"/><path d="M80.5 444.9c8.5 3.7 11.9 13.8 13.6 22.8 2 10.3 1.6 21.5 6.3 31 9 17.6 20.5 37.7 29.2 43.7" stroke="#00AD9F" stroke-miterlimit="10" stroke-linecap="round" stroke-linejoin="round"/><path d="M67.8 502.2c-7.3-2.9-17.2-4-22 2.3-4 5.3-1.9 12.9.9 19a27.1 27.1 0 0010.1 13 29 29 0 0011 3c10.7 1.2 21.4 1.8 32 1.8 12.5 0 27.5 5 37.8 12.8-13.2-24.5-44.9-42-69.8-51.9z" fill="#0056EC"/><path d="M54.9 518.1c9.4.4 18.9 1 28 3.8 9.1 2.7 44.7 19 50.2 26" stroke="#0B43A4" stroke-miterlimit="10" stroke-linecap="round" stroke-linejoin="round"/><path d="M148.4 452c-9.6-15-26-25.5-43.7-28-13.1-1.7-26.5.8-39.5-2a50.8 50.8 0 01-32.8-23.4 51 51 0 01-5-40.1c3-10.1 10-19.7 20-22.9a32 32 0 0117-.2c5.2 1.2 10 3.4 14.4 6.2a78 78 0 0124.4 26.7c5.5 9.5 19.3 24.2 28.6 33.8 5.5 5.7 9.5 9.5 9.5 9.5 6.4 8 3.4 31 7.1 40.4z" fill="#52D2BC"/><path d="M44.5 364.8c31.4 14.1 65.7 32.7 88 59" stroke="#00AD9F" stroke-miterlimit="10" stroke-linecap="round" stroke-linejoin="round"/><path opacity=".2" d="M135.5 420.3s-46.9-38-56.7-78.7a78 78 0 0124.4 26.7 234 234 0 0028.6 33.9l3.7 18.1zM137.6 269.3a316 316 0 01-16.2 38.2c-3.1 6.5-15.8 21.6-22.7 24.5.8-17 .9-36.9-1-54-2-16.6 4-29.2-2.5-44.5l-2.6-5.9 1.8.7C105 232.8 110 244 110.9 255c.8 9-.9 18.1-2 27.1-.7 4.2-1.1 8.4-.2 12.5v.1c1.1 4.9 8.2 4.6 9.1-.3l2.9-15.1c.8-4.5 1.7-9.2 5.4-12.4 1.5-1.2 3.4-2 5.3-2 3 .2 5 2 6.2 4.3z" fill="#5275A0"/><path d="M135.5 410.8c-7.4-38.6-11.3-44.6-8-54.3 4-12.3 1.8-24.7 5.7-37.1 3.9-12.4 6.5-25.8 3.4-38.4-1-4-3-8.3-7.8-8.5-2 0-3.8.7-5.3 2-3.7 3.1-4.6 7.8-5.5 12.3l-2.8 15.1c-.9 4.9-8 5.2-9.1.3v-.1c-1-4-.5-8.3 0-12.5 1.3-9 3-18 2.2-27.1-1-11-5.8-22.3-16.5-26.8-3.8-1.6-8.1-2-12-1-11.2 2.9-14.1 13.8-12.5 23 1.2 6.6 4.2 12.6 7 18.7 6.8 14.7 1.8 28.2 2.7 44.4 2.6 44.8 58.5 90 58.5 90z" fill="#7EE8D4"/><path d="M85.7 246.4c5.5 27.5 11 55.2 21.8 81 3.1 7.7 4.6 17.7 22.7 38.3" stroke="#00AD9F" stroke-miterlimit="10" stroke-linecap="round" stroke-linejoin="round"/><path d="M300.3 253.5c-5.7-6.5-11-13.1-16.5-19.5a171.3 171.3 0 00-17.5-17.6 175 175 0 00-42.6-26c-9.2-3.9-19-7.2-26.8-13.5-7.9-6.3-13.5-16.6-11-26.3 2-7 8-12.5 14.8-15a39 39 0 0121.4-.7c19.8 4.2 36.4 18.4 47.6 35.3l.6.9c8.2 12.5 14 26.5 19 40.8l4.7 13.7c2.2 6.9 9.2 21 6.3 27.9z" fill="#5193F4"/><path d="M209.7 151.4c21.6 4.1 37 18.4 53 33.4s27.6 34.8 33 56" stroke="#0B43A4" stroke-miterlimit="10" stroke-linecap="round" stroke-linejoin="round"/><path opacity=".2" d="M283.8 234c-.2 2.2-.1 4.5.3 6.7-5.4-1.2-9.1-9.6-11.6-18.7-2.4-8.9-3.6-18.5-4-23a99 99 0 011.8-28c8.2 12.6 14 26.6 19 40.9-1.7 5-3.2 10.2-4.4 15.5a45 45 0 00-1.1 6.6z" fill="#5275A0"/><path d="M321.3 156c-1.9 8.1-6.8 15.1-11 22.2a171.4 171.4 0 00-20.8 50.8c-1 4.4-1.7 8.8-.8 13.3-10.7-2.4-15-32.6-15.6-41.6a97.9 97.9 0 018.1-47.6 40.8 40.8 0 0112.5-17c5.8-4.2 14-5.7 20-2 3.7 2.1 6.1 5.8 7.3 9.9 1 3.9 1.1 8.1.3 12z" fill="#52D2BC"/><path d="M284.6 233.4c-6.6-16.6-2.6-51.8 8-73.9 3.2-6.6 7.8-12.9 14.2-16.6" stroke="#00AD9F" stroke-miterlimit="10" stroke-linecap="round" stroke-linejoin="round"/><path opacity=".2" d="M321.3 156c-1.9 8.2-6.8 15.1-11 22.2-2.3 3.8-4.5 7.6-6.4 11.5a38.8 38.8 0 01-5.5-16 27.9 27.9 0 0110.4-25c3.6-2.6 7.8-4 12.2-4.7 1 3.9 1.1 8.1.3 12z" fill="#5275A0"/><path d="M382.7 226.5c-.5 3-1.5 6-2.8 9-4.7 10.1-14.6 18.9-29.5 26l-1-20.5c-.7-18.5-20.8-28.7-33.5-42.2a43.5 43.5 0 01-12.3-25 27.9 27.9 0 0110.3-25 34.3 34.3 0 0122.8-5.1c12.7 1 25.6 6.3 33.5 16.3l1 1.1a61 61 0 019.2 22.8c3.1 14 4.6 28.4 2.3 42.6z" fill="#00AD9F"/><path d="M319.4 158.6c14 7.2 27.9 16 36 29.3 11.3 18.7 8.8 43 .1 63" stroke="#00AD9F" stroke-miterlimit="10" stroke-linecap="round" stroke-linejoin="round"/><path d="M615.5 345.9c8.9-14.6 4.3-33.4 7.4-50.2 2.4-12.9 9.6-24.8 19.9-33 6.4-5.1 15.5-8.8 22.8-5 1.5.9 3.4 2 5 1.1.9-.5 1.2-1.7 1.4-2.7 1.9-9-2.5-19 1.1-27.5 2-4.6 5.9-8 10-10.8a55 55 0 0127.3-8.5c2.5 0 5.2 0 7.5 1.1 4.1 2.1 6 7.2 5.4 11.8-.5 4.6-3 8.7-5.8 12.4-9.3 12.1-23 22.7-24.8 37.9-.2 1.9-.2 4 .7 5.6.8 1.7 2.4 2.9 3.3 4.5 2.9 5.3-2.7 11.3-8 13.9-5 2.3-10.4 3.8-15.8 4.3-3.8.4-8 .5-10.6 3.2-4.7 5.2.7 13.4-.3 20.2-.6 4.3-3.7 7.8-6.9 10.8a124.4 124.4 0 01-19 15c-5.5 3.5-11.3 6.6-16.2 11a25 25 0 00-9.1 16.8" fill="#52D2BC"/><path d="M627.2 331.7c1.4-7 4.7-13.6 8-20 5-10.1 10.2-20.4 18-28.6 5.8-6.3 12.9-11.3 18.8-17.4a65 65 0 0010.7-14.9c1.6-2.9 2.9-6 5-8.6 2.4-3 5.8-5.2 8.7-7.8 4-3.6 7.1-8 9.3-12.8" stroke="#00AD9F" stroke-miterlimit="10" stroke-linecap="round" stroke-linejoin="round"/><path d="M742.9 356c-2 7.7-5 15.3-10.1 21.4a45.6 45.6 0 01-12.7 10.2 92.1 92.1 0 01-39.7 10.9c-16 .6-32.5-3-48 1.6a47.2 47.2 0 00-27.3 21.7l2-13.3c4-14.3 8-28.9 15.8-41.4a156.9 156.9 0 0156.4-48 65.3 65.3 0 0136-7.7c12.2 1.5 24.3 9.3 28.2 21a42.2 42.2 0 01-.6 23.6z" fill="#5193F4"/><path d="M617.7 398.4a97.2 97.2 0 0149.3-37.5c12.5-4.1 25.6-5.7 38.2-9.3a57.5 57.5 0 0032.5-20.7" stroke="#0B43A4" stroke-miterlimit="10" stroke-linecap="round" stroke-linejoin="round"/><path d="M625.4 526.1c.7-17.9 10-34.4 21.2-48.3a85 85 0 0134.6-27.6c4.4-1.7 9.2-2.8 13.8-1.7 4.5 1.2 8.6 5 8.7 9.7 0 4-2.6 7.4-5.4 10.2-9.1 9.2-21 15-32.1 21.8-19.1 11.6-37.3 27-44.9 48" fill="#52D2BC"/><path d="M632.5 510.5c11.7-26 42-49.4 61.8-52.3" stroke="#00AD9F" stroke-miterlimit="10" stroke-linecap="round" stroke-linejoin="round"/><path d="M618.1 540.3c-.1-3 9.6-10.8 11.8-12.8a113 113 0 0142-24c6.3-2 12.9-3.4 19-1.9 6.3 1.5 12 6.6 12.6 13.3.6 6.5-3.8 12.8-9.3 16-5.6 3.1-12 3.6-18.3 3.2-9.6-.5-19-3-28.6-2.8-9.6 0-23 1-29.2 9z" fill="#00AD9F"/><path d="M628 531.2a133.6 133.6 0 0171-15" stroke="#00AD9F" stroke-miterlimit="10" stroke-linecap="round" stroke-linejoin="round"/><path opacity=".2" d="M382.7 226.5c-.5 3-1.5 6-2.8 9-6.9-14.7-13-33.8-14.4-57.2a31.6 31.6 0 014.7-18.3l1 1.1a61 61 0 019.2 22.8c3.1 14 4.6 28.4 2.3 42.6z" fill="#5275A0"/><path d="M450.6 225.6c14.7-5.2 30-9.3 43.3-17.4 4-2.4 7.9-5.2 10.8-9 2.8-3.7 4.6-8.5 4-13.1-.7-4.8-3.7-9.3-2.7-14 .7-3 3-5.5 4.8-8.1a26 26 0 003.3-21.5c-2.3-7.8-8.1-14-11.4-21.3-2.7-6-3.7-12.8-2.7-19.3-12.4.2-23.6 6.9-35.7 9.1-9.3 1.8-18.9.8-28 3a44.3 44.3 0 00-33 35.5 24.4 24.4 0 00-21.6 7.2c-5.7 6-9 14.7-8.4 23 3.8 60.8 38.5 92.4 38.5 92.4s33.2-44.5 38.8-46.5z" fill="#7EE8D4"/><path d="M417.8 225.2c-1.5-15 3.7-29.8 9.7-43.6a173.5 173.5 0 0121.7-38.1 85.8 85.8 0 0134.1-27M430.9 125.6c-1.6 13.4-.5 29.5 3 42.4M436.4 163.3a104.7 104.7 0 0156.8-14.7M399 165.8c18.5 7.7 19.2 34.7 19.7 42.3M423.7 191c14-10 34.3-13.1 49.3-9.4M462 118.7a22.2 22.2 0 00-4.8 15.7M461.2 130.6c6.5-3.3 15.1-4 24.4-1.8" stroke="#00AD9F" stroke-miterlimit="10" stroke-linecap="round" stroke-linejoin="round"/><path d="M100 160c1.7-.1 13.4-8.9 18-11.8 1.2-.8 2.5-1.7 3.4-3 1-1.1 1.3-2.8.7-4.2-.8-1.7-2.2-3.4-5.5-3.4-5.9 0-8 2-10.8 4.9-9.4 9.7-5.9 17.4-5.9 17.4zM152.7 195a31 31 0 0016.2 4c2.1-.3 4.5-1.3 5.2-3.3.6-1.8-.2-3.8-1.6-5a11.5 11.5 0 00-5-2.3 50.7 50.7 0 00-23.2 1.1s5.3 4.2 8.4 5.6zM186.5 119.4c-2.3-1.4-4.9-3.4-4.8-6 0-2.8 2.8-4.8 5.5-4.8s5.2 1.4 7.3 3.2c8.6 7.6 7.5 16.2 7.5 16.2s-13-7-15.5-8.6zM193.3 96.3c-2-.8-4.1-1.9-5.3-3.7-.6-.9-.9-2-.5-3 .5-1.7 1.6-3.2 5.8-2.4 13.4 2.4 16.3 11.5 16.3 11.5s-12.8-.8-16.3-2.4zM232.5 116.6c5.3-.5 10.9-3.1 14.3-7.3a13 13 0 002.8-5.3c.5-2 0-4.3-1.5-5.6-2-1.6-4.9-1.4-7 0-2 1.3-3.4 3.6-4.4 5.8-1.5 3-4.2 12.4-4.2 12.4z" fill="#4A49CA"/><path d="M136.6 312.3l-39-34.4c-7-6-14-12.4-18.4-20.5-9.4-17.5-4-40.1 8.8-55.4 12.7-15.2 31.4-24.2 50.1-30.7 18.8-6.6 38.3-11.1 56.1-19.8 11.2-5.4 22.5-13.5 25.6-25.6 1.8-7.2.3-15.3-4.1-21.3-4.4-6-11.7-10-19.1-10.4M241.6 104.2c-3.6 10.9-17.4 17.5-23.7 27" stroke="#0B43A4" stroke-miterlimit="10" stroke-linecap="round" stroke-linejoin="round"/><path d="M191.9 116.7c2.7 2.9 6 5.3 8.4 8.4 5 6.7 5.4 17.6-2 24.3M121.9 177.7a74.1 74.1 0 0041 15.3M95.6 193.8a40.4 40.4 0 0113.6-44" stroke="#0B43A4" stroke-miterlimit="10" stroke-linecap="round" stroke-linejoin="round"/><path d="M514.9 128c-.7-1.9-.6-4.2.8-5.7 1.1-1.1 3-1.6 4.5-1 11.4 5 10.2 22.8 10.2 22.8s-10.8-1.6-15.5-16zM514.6 161.4c-7.4 13.3 18.8 12.3 28.3 4.4 0 0-22-16-28.3-4.4zM547.8 129c-1.8-2.4-2.5-6-.5-8.3 1.4-1.7 4-2.3 6.1-1.8 2.3.4 5.6 2.4 7 4.2 8.6 10.7 4.5 21.2 4.5 21.2s-14.2-11.2-17.1-15.2zM651.9 162c-.7-2-.5-4.5 1-6 1.1-1 2.6-1.2 4-1.1 1.3 0 2.6.6 3.8 1.1 2.7 1.2 4.8 3.4 6 6 3.3 6.7 1.1 15 1.1 15s-14.3-9.8-16-15zM619.1 186.5c-4.6-4-11.7-5.2-17.4-2.8a8.9 8.9 0 00-3.7 2.8c-2 2.9-1.3 7 .8 9.9 2.2 2.8 5.4 4.5 8.7 6 5.8 2.6 14.8 3.1 21 4.7 0 0 0-12.3-9.4-20.6z" fill="#4A49CA"/><path d="M523 131a46 46 0 0027 27.2c12.1 5.2 25.5 6.5 38.7 7.4 13.2.8 26.5 1.3 39.2 4.7 12.5 3.4 24.8 10.4 30.2 22.1 6.4 14.3.7 31.3-8.4 44-9.1 12.8-21.4 23-30.2 36-4 5.9-7.4 12.9-6.6 20 1 9.5 9.1 16.5 16.6 22.6M553.4 126.3a75.5 75.5 0 0117.4 37.6" stroke="#0B43A4" stroke-miterlimit="10" stroke-linecap="round" stroke-linejoin="round"/><path d="M524 163.6c5 1.3 10.1 2.6 15.3 2.7 5.1 0 11.1-2.9 14.8-6.5M660.4 162.9a25.8 25.8 0 017.8 17.3c.2 6.5-3.4 14.4-7.7 19.2M611.5 192.3c9.3 8.6 17.5 15.6 27.8 22.9 4.8 3.3 14.2 7.6 18.4 6.5" stroke="#0B43A4" stroke-miterlimit="10" stroke-linecap="round" stroke-linejoin="round"/><path opacity=".2" d="M720.1 387.6a92.1 92.1 0 01-39.7 10.9c-16 .6-32.6-3-48 1.6-7 2.1-13.5 6-18.8 11l-1.6.8c-1.3-10.8 25.7-25 34-28.6a98 98 0 0147.6-8.3 41 41 0 0120.2 6c2.5 1.7 4.8 4 6.3 6.6z" fill="#5275A0"/><path d="M693.6 381.4a41 41 0 0120.2 6c5.9 4 10 11.3 8.6 18.3-1.5 8.1-10 13.4-18.2 14.4s-16.5-1.2-24.6-3c-18-3.6-36.6-4.5-54.8-2.4-4.6.5-8.9 1.4-12.9 3.7-1.2-10.8 25.8-25 34-28.6a97.9 97.9 0 0147.7-8.4z" fill="#52D2BC"/><path d="M619 411.6c13.4-11.8 48-19.8 72.3-17.3 7.4.8 14.8 3 20.4 7.8" stroke="#00AD9F" stroke-miterlimit="10" stroke-linecap="round" stroke-linejoin="round"/><path d="M593.9 279l131.2-.3a27.9 27.9 0 11.1 55.7l-89.7.2M196.8 375.2l-91.8.2a15.7 15.7 0 10.1 31.5H132" stroke="#0B43A4" stroke-miterlimit="10" stroke-linecap="round" stroke-linejoin="round" stroke-dasharray="4 4"/><path d="M50.3 446.3c-31.4 0-32 47 8 46.8l589.5-1.2c24.7 0 27.3-38.6-3.2-38.6-61 .2-63-28.9-29.1-29" stroke="#C8DBFB" stroke-miterlimit="10" stroke-linecap="round" stroke-linejoin="round" stroke-dasharray="4 4"/><path d="M57.7 445a7.8 7.8 0 11-15.4 2.6 7.8 7.8 0 0115.4-2.6z" fill="#5193F4"/><path d="M630.5 424.6a7.8 7.8 0 11-15.3 2.6 7.8 7.8 0 0115.3-2.6z" fill="#0B43A4"/><path opacity=".2" d="M639 560.1l-488.2 1c-6.5 0-11.8-5.2-11.8-11.7l-.6-323.3c0-6.5 5.2-11.8 11.7-11.8l488.2-1c6.5 0 11.8 5.3 11.8 11.8l.7 323.2c0 6.5-5.3 11.8-11.8 11.8z" fill="#5275A0"/><path d="M629.4 554l-488.1 1c-6.5 0-11.8-5.3-11.8-11.8l-.7-323.3c0-6.5 5.3-11.8 11.8-11.8l488.1-1c6.5 0 11.8 5.3 11.8 11.8l.7 323.2c0 6.5-5.3 11.8-11.8 11.8z" fill="#fff"/><path d="M628 207.1l-486.1 1c-7.1 0-12.9 5.8-12.9 12.9V232l511.8-1v-11.2c0-7-5.8-12.8-12.9-12.8z" fill="#0056EC"/><path d="M142.4 555l73.5-.2-.7-322.8-86.3.1.7 310c0 7.1 5.8 12.9 12.8 12.8z" fill="#C8DBFB"/><path d="M628.9 210.4c4.7 0 8.5 3.8 8.5 8.5l.7 323.2c0 2.3-.9 4.5-2.5 6a8.4 8.4 0 01-6 2.6l-488.2 1a8.6 8.6 0 01-8.6-8.5l-.6-323.3c0-2.3.8-4.4 2.5-6a8.4 8.4 0 016-2.5l488.1-1zm0-3.3l-488.2 1c-6.5 0-11.8 5.3-11.8 11.8l.7 323.3c0 6.5 5.3 11.7 11.8 11.7l488.2-1c6.5 0 11.7-5.3 11.7-11.8l-.6-323.2c0-6.5-5.3-11.8-11.8-11.8z" fill="#0056EC"/><path d="M203.5 530.3h-56.6c-2.5 0-4.5-2-4.5-4.4v-.6c0-2.5 2-4.5 4.5-4.5l56.6-.1c2.5 0 4.5 2 4.5 4.5v.5c0 2.5-2 4.6-4.5 4.6zM196.7 311.2l-48.2.1a8.3 8.3 0 01-8.3-8.2v-48.2c-.1-4.6 3.6-8.3 8.2-8.3l48.2-.1c4.5 0 8.3 3.7 8.3 8.3v48.1c0 4.6-3.6 8.3-8.2 8.3z" fill="#fff"/><path d="M403 455.5L235 456a6 6 0 01-6-6v-.7a6 6 0 016-5.9L403 443a6 6 0 015.9 5.9v.7c0 3.3-2.7 6-6 6zM393.3 264.3l-132.7.3a6 6 0 01-5.9-5.9v-.7a6 6 0 015.9-6l132.6-.2a6 6 0 016 5.9v.7c0 3.3-2.7 6-6 6zM603 398.5l-176.9.3a6 6 0 01-5.9-5.9v-.7a6 6 0 015.9-6L603 386a6 6 0 015.9 6v.6a6 6 0 01-5.9 6zM403 481.5l-167.9.3a6 6 0 01-5.9-5.9v-.7a6 6 0 016-6L403 469a6 6 0 016 5.9v.7c0 3.3-2.7 6-6 6zM403 507.4l-167.8.3a6 6 0 01-6-5.9v-.7a6 6 0 016-6l167.8-.3a6 6 0 016 6v.6c0 3.3-2.7 6-6 6zM599.4 524.3l-169.2.3a9.7 9.7 0 01-9.8-9.7l-.1-72.6c0-5.4 4.3-9.8 9.7-9.8l169.2-.4c5.4 0 9.8 4.4 9.8 9.8l.1 72.6c0 5.4-4.3 9.8-9.7 9.8zM157.1 219.9a4.1 4.1 0 11-8.2 0 4.1 4.1 0 018.2 0zM170.5 224a4.1 4.1 0 100-8.3 4.1 4.1 0 000 8.3zM192.1 219.8a4.1 4.1 0 11-8.2 0 4.1 4.1 0 018.2 0zM248.2 259.6a12 12 0 10-23.8-2.4 12 12 0 0023.8 2.4z" fill="#C8DBFB"/><path d="M200 321.3l-53 .2c-1.1 0-2.1-1-2.2-2.3v-.2c0-1.3 1-2.3 2.3-2.3h53c1.2 0 2.2.9 2.2 2.1v.3c0 1.2-1 2.2-2.2 2.2zM200 331.5h-52.9c-1.2 0-2.2-1-2.2-2.1v-.3c0-1.3 1-2.2 2.2-2.3h53c1.2 0 2.2 1 2.2 2.1v.3c0 1.3-1 2.2-2.2 2.3z" fill="#fff"/><path d="M260.7 352.8l-15 .2.2 62.7h-13a8.3 8.3 0 01-8.2-8.2l-.3-116c0-4.6 3.7-8.4 8.3-8.4h27.9l.1 69.7z" fill="#C8DBFB"/><path d="M357.9 282.9v1.6c4.5 0 8.1 3.6 8.1 8.1l.2 113.1a8.1 8.1 0 01-8 8.2l-123.8.2a8.1 8.1 0 01-8.1-8l-.3-113.2a8.1 8.1 0 018.1-8.1l123.8-.3V283zm0 0L234 283a9.7 9.7 0 00-9.7 9.8l.2 113.1c0 5.4 4.4 9.7 9.8 9.7l123.7-.2c5.4 0 9.8-4.4 9.8-9.8l-.3-113c0-5.5-4.3-9.8-9.7-9.8zM564.5 376l-165-37.3A9.7 9.7 0 01392 327l18.5-82a9.8 9.8 0 0111.7-7.5l165 37.3a9.7 9.7 0 017.4 11.7l-18.6 82.1a9.7 9.7 0 01-11.6 7.4z" fill="#C8DBFB"/><path d="M245 599.3h-23l-5.7-29.4h34.3l-5.5 29.4z" fill="#0056EC"/><path d="M222.7 569.9c0 2.4-.4 6.4 1.2 6.5 1.6 0 1-3.8 2.7-3.7 1.2 0-.5 12.8 4 13 3 .3 2.4-6.2 2.7-10.2.2-2.7 3.7-2.2 3.7-.4v5.7c.2 3.8 6 2.8 5.9-2.3-.2-5.1 0-8.6 0-8.6h-20.2z" fill="#C8DBFB"/><path d="M217.2 587.7c-.4 0-.9 0-1.3-.2a4.8 4.8 0 01-3.6-2.6c-2.3-5 3.8-14.4 4-14.8l.4 1.7s-5.4 8.1-3.3 12.6c.5 1 1.4 1.7 2.7 2l1.2.1c8.3 0 22.5-15.5 22.7-15.6.6-.7 1.7 0 1.3.5-.7.8-15.1 16.2-24 16.3z" fill="#0C2340"/><path opacity=".2" d="M459.9 185.5c-32.9-1.2-78 23-62 82.4-.4 5 2.7 8.6 5.8 7.6 3.2-1 .4-10.5.4-10.5 5.5-44.1 15.7-51.7 33-51.6H478c10 1.4 28.3 8.4 31 43.8l10.2 1.8c.8-25.5-5.4-71.4-59.2-73.5z" fill="#5275A0"/><path d="M459.9 180.3c-32.9-1.2-78 23-62 82.4l6.2-2.9c5.5-44.1 15.7-51.7 33-51.6H478c10 1.4 28.8 10.4 31.5 45.7h9.7c.8-25.6-5.4-71.5-59.2-73.6z" fill="#EF832B"/><path d="M453.1 181.3l-4.8 10.7s.6 6 6.5 6c6-.2 6.7-3 6.7-3l.8-12.2-9.2-1.5z" fill="#FFB9A3"/><path d="M478.2 172.4c-5.5 9.8-8 12.9-15.3 14.3-9.4 2-20-4.4-15-20 4-12.8 10-10.8 16-10.3 5.9.5 20.3 5.4 14.3 16z" fill="#FFB9A3"/><path d="M456.1 164.6c-1.5-.7-3.4 0-4.5 1.1a5 5 0 00-1.3 4.8 4.3 4.3 0 00-4 4.5c-1.6-3.6-.7-7.4-1-11.1-.3-3.7 0-7.8 2.5-10.6 1-1.2 2.2-2 3.6-2.8a18.7 18.7 0 0116.7-.2c1 .5 3.8 2.2 7.5 1.3 7.2-1.7 11.4 3.1 7 7.7 1.5.5 3 1 3.6 2.4.2.3.3.8 0 1-.1.3-.4.4-.6.5-1.2.4-2.5.5-3.8.3.5.4 3.1.5 4 2 2 4.2-6.4 2.1-7.7 1.7 1.5.3 5.4 3.4 4.1 5.5-.2.4-5.4 3.4-11-3a10.1 10.1 0 00-4.7-3.3c-1.5-.4-3 .2-4.5.7-1 .4-3.7 2-4.5 1-.8-1 .3-2.6-1.4-3.5z" fill="#0C2340"/><path d="M510.5 253.9c-1.5 5-3 5.5-1.2 6.3 1.8.7 3.2-2 3.2-2l8.2 1.6s-1.9-5.3-3.2-6c-1.2-.6-7 0-7 0zM404.1 259.8c1 2.7 1.4 2.7 2.9 5.9 2.8 6-3.8 15.6-8 5.1-1-2.8-1.1-8.1-1.1-8.1l6.2-2.9z" fill="#FFB9A3"/><path d="M467.7 151.1c5.6.4 12.4-3.6 16.8 1.5.4.4 1.2-.2.9-.7-4.2-6-12-1.5-17.7-1.7-.6 0-.6 1 0 1zM470 148c-3.8.7-7.5-1-11.3-.5-3.1.5-5.9 2.1-8.2 4.1-.6.6.2 1.6.8 1.1 3.3-2.1 6.5-4 10.6-3.7 3 .2 5.4 1.1 8.4.2.7-.2.4-1.3-.3-1.1zM448.3 153.3a9 9 0 00-4.5 7c-.3 2.4-.3 7.6 2 9 .6.2 1.1-.5.7-1-1.5-1.5-1.6-5.5-1.5-7.5.1-2.9 1.4-5.1 3.7-6.9.4-.3 0-.9-.4-.6zM489.5 162.4c-1.4-2.4-5-4.5-7.6-3-.5.3-.3 1 .2 1 1.2 0 2.3-.2 3.4.1a6 6 0 013.2 2.3c.4.5 1 0 .8-.4z" fill="#0C2340"/><path d="M309 409.8c17.1 6.3 32 26 28.7 40.4-4 16.2-15.1 23.2-15.1 23.2l-3.5-6.5s9-14 8.1-20.6c-1.2-10.5-14.6-17.6-14.6-17.6l-3.7-19z" fill="#0B43A4"/><path d="M266.6 592.6s-10.6 4.3-13.2 6.7h20.9v-6.7h-7.7zM312.8 592.2s3 3.5 3.6 7H302c.2-2.4 1.3-4.7 2.7-7h8z" fill="#0C2340"/><path d="M313.7 592.5H304a1393.7 1393.7 0 00-8-113.6l5.3-1.1 19.7-4.4c3.3 15.4-4.4 86.1-7.3 119z" fill="#047F76"/><path d="M277.9 478.3c-7.6 12-9.6 98.5-12.8 114.5l9.3.5s10.6-54.5 33.2-115.8l-29.7.8z" fill="#009790"/><path opacity=".2" d="M311.5 477.5c-4.5 12-8.5 24-12 35.1-1.4-17.1-2.7-31-3.5-33.7l5.3-1.1 10.2-.3z" fill="#5275A0"/><path d="M277.9 478.3c-7.6 12-9.6 98.5-12.8 114.5l9.3.5s10.6-54.5 33.2-115.8l-29.7.8z" fill="#009790"/><path d="M283.7 381.7s-6 22.5 8.8 22.5l-.8 5.8 11.2 1.2-2.4-8s2.2-14.2 2.3-16.8c.3-4.7-13-13.2-19.1-4.7z" fill="#FFB9A3"/><path d="M247.1 356.4h-4.4v18.4h4.4v-18.4z" fill="#0C2340"/><path d="M257.4 356.4h-25a3.2 3.2 0 01-3.2-3.1v-.7c0-1.7 1.4-3.2 3.2-3.2h25c1.8 0 3.2 1.4 3.2 3.2v.6c0 1.8-1.4 3.2-3.2 3.2z" fill="#0056EC"/><path d="M241.6 379.6c-.1-4.1-3.6-3-1.7-9.9 1.2-4.2 9.9.7 8.8 3.6l-2.3 7.6-4.8-1.3z" fill="#FFB9A3"/><path d="M292.6 408.7c-22 1.4-23.5 8.9-33.4 7.7-14.7-1.7-12.1-29-10.3-38.7h-8.7s-15.8 62 34 50.5c-2 10.9 10.5 28.6-1.5 50.1 18.9 5.2 36.5 6.4 51.6 0-2.6-3.6 5.4-39.6-10.4-65.5-3-5.1-19.6-4.3-21.3-4.1z" fill="#0056EC"/><path d="M292.6 408.7c-22 1.4-23.5 8.9-33.4 7.7-14.7-1.7-12.1-29-10.3-38.7h-8.7s-15.8 62 34 50.5c-2 10.9 10.5 28.6-1.5 50.1 18.9 5.2 36.5 6.4 51.6 0-2.6-3.6 5.4-39.6-10.4-65.5-3-5.1-19.6-4.3-21.3-4.1z" fill="#0056EC"/><path d="M289.6 386c1.4.4 3.1.7 3.9 1.9.5.8.5 1.8.4 2.7.3-1 1.4-1.7 2.4-1.6 1 .2 1.9 1 2 2 0 .6-.2 1-.4 1.5-.5 1-1 2-1.7 3 1.8.7 3.4 6 4.3 7.7 3-.8 9.8-3.4 10.3-14.2.3-5-1.2-11-6.6-14.3-3.9-2.3-10.2-2.4-14.6-1.3-3.6 1-9.3 4.5-6.6 8.7 1.3 2 4.2 3.3 6.6 4z" fill="#EF832B"/><path d="M308.5 379.2c2.1-.7 4.7-.4 6 1.4 1 1.3.8 3 1.1 4.7.2.7.5 1.5 1 2 .8.7 1.8.9 2.8.9 2.4.1 4.8-.2 7.1.2 2.4.4 4.8 1.7 5.4 4 .4 1.2.2 2.5.7 3.7.6 1.8 2.5 2.8 4.2 3.8 3.5 2.2 6.5 5.2 8.7 8.7 1.3 2.1 2.4 4.6 2.6 7.1.1 2.6 2 6 1.5 8.4-.6 2.7-3.2 6.4-8.5 8.1-9 3-12 4.2-20.7-1-1-.6-3-2.7-4-3.5a4.6 4.6 0 01-1.5-2.3c-.7-2.5.1-5.2 1.4-7.5 1.3-2.3 3-4.3 4.4-6.5a8.3 8.3 0 001.4-4.5c0-.5-.2-1.1-.6-1.6-.4-.3-1-.5-1.4-.6-2-.4-4 0-5.8-.8a4 4 0 01-2-4.7c.3-1.1 1.2-2.1 1.4-3.3.4-1.7-.7-3.5-2.2-4.5-1.5-1-3.3-1.4-5.1-1.7-1-.1-1.8-.3-2.6-.8a3.4 3.4 0 01-1.2-2.8c0-3.4 2.8-5.9 6-7z" fill="#EF832B"/><path d="M307 388.2c10.8 2.4-3 12.8 2.8 17.7 1.7 1.4 3.6 1 5.5 1.3 7.5 1 3.4 6 2.9 10-.1.6.9.7 1 .1.7-2.7 3.2-6 1.9-9-1.2-2.5-4-2.2-6.3-2.3-3 0-6.1 0-5-5.7.2-1.3 1.2-2.6 1.7-3.8.6-1.4 1-2.8.7-4.3-.5-2.6-2.7-4.1-5.1-4.5-.4-.1-.6.5-.2.5zM284.4 374.8a20.2 20.2 0 0124 2.9c.4.4 1-.2.6-.7-6.2-7-17.3-8.3-24.9-2.6-.2.2 0 .6.3.4z" fill="#EF832B"/><path d="M567.7 401.3l-3.6 7.4 9 3.6.9-8.5-6.3-2.5z" fill="#FFB9A3"/><path d="M573.1 377.4c-20.2 8.8-12 30.2.4 27.7 6-1.3 9-20.6 9-20.6l-9.4-7.1z" fill="#FFB9A3"/><path d="M579.9 374.3c-.7-1.2-1.3-2.5-2.4-3.4-1.1-.9-2.9-1.2-3.9-.2-1.4 1.3-.6 3.6.8 4.9-1.2.1-2.6-.7-3.5.1-.6.6-.4 1.7 0 2.6.9 1.9 2.3 3.6 4.1 4.7-1 .6-2.2 1.7-1.6 2.7l.7.8c.4.6 0 1.5-.4 2.1l-2 3c.6-.9 2.3-.5 2.8.6.5 1 0 2.4-.7 3.3-.4.4-1 .8-1.6 1-.6.1-3 7.7-1.2 9.2 2.4 1.8 10.5.2 11.6-1.8 1.2 1.2 2.9 2.2 4.6 1.9 1.7-.4 3-2.5 2-4 1.9.7 4 .2 5.3-1.3a4.9 4.9 0 00.5-5.5c1-.3 1.2-1.6 1-2.6-.6-2-2.3-3.8-4.3-4.3 1 0 1.8-1 1.9-2 0-1.1-.5-2-1.1-2.9-2-2.3-4.2-3-7-3.3-2.8-.3-4.4-3.2-5.6-5.6z" fill="#4A49CA"/><path d="M560.9 591.2s-11.9 5.7-13.5 7.5c0 0 23.4 1 25.2-.1 1.8-1.1-3.7-7.4-3.7-7.4h-8zM605 584.8s-10.4 8-11.6 10c0 0 24.6-3.6 24.6-5.2s-5.2-6.5-5.2-6.5l-7.8 1.7z" fill="#0C2340"/><path d="M572.3 481.3c-.4 2.4-16.6 66.5 29.8 104.9l13.5-3.1s-15.7-14.7-23-41.1c-7-25-1.5-27.5 2.7-41.2 4.6-15.2 1.2-26.3 1.2-26.3l-24.2 6.8z" fill="#D8742A"/><path d="M550.1 481c-7.3 17.7-20 77.6 7.6 111.4h13.7s-10.8-12-12-39.5c-1.2-27.5 5.8-39.6 10.7-48.7a160 160 0 009.5-24.5l-29.5 1.4z" fill="#EF832B"/><path d="M540.4 372c-3.6 13-4.8 36.7 13.5 46.3l12.2-3s-22-11.6-17.3-40.8l-8.4-2.5z" fill="#0B43A4"/><path d="M506.7 365.4l9.5-1.1s-1.2 40 45 43.3c35.2 2.5 38 68.6 38 68.6-11.4 7.7-30.5 10-54.9 8.2 0 0 1.6-47.1-2.3-60 0 0-38.3-12-35.3-59z" fill="#0056EC"/><path d="M495 358.2c-1.6 1.9 5.1 4.2 11.7 7.3l8.3-1V361c0-1.7-1-2.7-2-1.2-1 1.5-5.1 2-7.1.6s-9.3-4-10.9-2.2zM540.4 372c-3-3-2.2-2.8-2.2-2.8l9.3 2.1s2-4.5 3.8-4.6c1.8-.2-1.3 3-.6 4.3.7 1.2-2 3.5-2 3.5l-8.3-2.5z" fill="#FFB9A3"/><path d="M585.1 378.7c2 .5 3.9.7 5.4 2 1.6 1.3 2.3 3.5 1.2 5.3-.5.9.7 1.6 1.3.8 1.4-1.9 1-4.5-.4-6.3-1.7-2-4.8-2.9-7.4-2.6-.4 0-.6.7-.1.8zM593.5 396c1.3.8 2.4 2 1.8 3.6-.5 1.4-2 2.3-3.1 3-.6.5-.1 1.3.5 1 1.8-.9 3.6-2.2 3.9-4.3.2-1.9-1-3.3-2.6-4.2-.5-.2-1 .6-.5 1zM572.2 405.7a11.3 11.3 0 0014-1.5c.4-.5-.2-1.4-.7-1a12.4 12.4 0 01-13 1.9c-.3-.2-.7.4-.3.6z" fill="#4A49CA"/><path d="M594.1 381.6c2.5 2.3 0 5.5-1.6 7.5-.3.5.2 1 .6.7 1.5-1.4 2.9-2.8 3-4.8.2-1.5-.4-3-1.8-3.7-.1-.1-.4.1-.2.3z" fill="#4A49CA"/><path d="M319.7 85.3l-3.8-9.3 36.7-14-33 23.3z" fill="#0B43A4"/><path d="M321.5 79.6l31-17.5L331 84l-9.4-4.5z" fill="#5193F4"/><path d="M307.5 72.2l45-10.1L316 76l-8.4-3.9z" fill="#5193F4"/><path d="M321.5 79.6l-1.8 5.7 5.6-4-3.8-1.7z" fill="#0056EC"/><path d="M315.3 84c-9.5-1.6-22.6 8.1-17 18.2 2 3.5 11.8 2 11-1.8-.3-1.8-2.5-2.6-4.4-2.4-10.7 1.2-11.1 10.2-10.6 12.5 2.4 11.8 20.5 7.8 26.6 6.1" stroke="#C8DBFB" stroke-miterlimit="10" stroke-linecap="round" stroke-linejoin="round" stroke-dasharray="4 4"/></g><defs><clipPath id="clip0"><path fill="#fff" d="M0 0h770v657H0z"/></clipPath></defs></svg>